# Blender v2.92.0 OBJ File: ''
# www.blender.org
mtllib Bench.mtl
o Cube_Cube.001
v -3.316455 -0.648479 -1.183545
v -3.430886 1.016997 -1.069114
v -3.316455 -0.648479 -1.816455
v -3.430886 1.016997 -1.930886
v -2.683545 -0.648479 -1.183545
v -2.569114 1.016997 -1.069114
v -2.683545 -0.648479 -1.816455
v -2.569114 1.016997 -1.930886
v -3.221094 0.674185 -1.278906
v -3.221094 0.674185 -1.721094
v -2.778906 0.674185 -1.721094
v -2.778906 0.674185 -1.278906
vt 0.601958 0.000000
vt 0.625000 0.000000
vt 0.625000 0.250000
vt 0.601958 0.250000
vt 0.625000 0.500000
vt 0.601958 0.500000
vt 0.625000 0.750000
vt 0.601958 0.750000
vt 0.625000 1.000000
vt 0.601958 1.000000
vt 0.125000 0.500000
vt 0.375000 0.500000
vt 0.375000 0.750000
vt 0.125000 0.750000
vt 0.875000 0.500000
vt 0.875000 0.750000
vt 0.375000 1.000000
vt 0.375000 0.250000
vt 0.375000 0.000000
vn -0.8530 -0.5220 0.0000
vn 0.0000 -0.5220 -0.8530
vn 0.8530 -0.5220 0.0000
vn 0.0000 -0.5220 0.8530
vn 0.0000 -1.0000 0.0000
vn 0.0000 1.0000 0.0000
vn 0.0000 0.0719 0.9974
vn 0.9974 0.0719 0.0000
vn 0.0000 0.0719 -0.9974
vn -0.9974 0.0719 0.0000
usemtl Material.001
s off
f 9/1/1 2/2/1 4/3/1 10/4/1
f 10/4/2 4/3/2 8/5/2 11/6/2
f 11/6/3 8/5/3 6/7/3 12/8/3
f 12/8/4 6/7/4 2/9/4 9/10/4
f 3/11/5 7/12/5 5/13/5 1/14/5
f 8/5/6 4/15/6 2/16/6 6/7/6
f 5/13/7 12/8/7 9/10/7 1/17/7
f 7/12/8 11/6/8 12/8/8 5/13/8
f 3/18/9 10/4/9 11/6/9 7/12/9
f 1/19/10 9/1/10 10/4/10 3/18/10
o Cube.001_Cube.002
v 2.683545 -0.648479 -1.183545
v 2.569114 1.016997 -1.069114
v 2.683545 -0.648479 -1.816455
v 2.569114 1.016997 -1.930886
v 3.316455 -0.648479 -1.183545
v 3.430886 1.016997 -1.069114
v 3.316455 -0.648479 -1.816455
v 3.430886 1.016997 -1.930886
v 2.778906 0.674185 -1.278906
v 2.778906 0.674185 -1.721094
v 3.221094 0.674185 -1.721094
v 3.221094 0.674185 -1.278906
vt 0.601958 0.000000
vt 0.625000 0.000000
vt 0.625000 0.250000
vt 0.601958 0.250000
vt 0.625000 0.500000
vt 0.601958 0.500000
vt 0.625000 0.750000
vt 0.601958 0.750000
vt 0.625000 1.000000
vt 0.601958 1.000000
vt 0.125000 0.500000
vt 0.375000 0.500000
vt 0.375000 0.750000
vt 0.125000 0.750000
vt 0.875000 0.500000
vt 0.875000 0.750000
vt 0.375000 1.000000
vt 0.375000 0.250000
vt 0.375000 0.000000
vn -0.8530 -0.5220 0.0000
vn 0.0000 -0.5220 -0.8530
vn 0.8530 -0.5220 0.0000
vn 0.0000 -0.5220 0.8530
vn 0.0000 -1.0000 0.0000
vn 0.0000 1.0000 0.0000
vn 0.0000 0.0719 0.9974
vn 0.9974 0.0719 0.0000
vn 0.0000 0.0719 -0.9974
vn -0.9974 0.0719 0.0000
usemtl Material.001
s off
f 21/20/11 14/21/11 16/22/11 22/23/11
f 22/23/12 16/22/12 20/24/12 23/25/12
f 23/25/13 20/24/13 18/26/13 24/27/13
f 24/27/14 18/26/14 14/28/14 21/29/14
f 15/30/15 19/31/15 17/32/15 13/33/15
f 20/24/16 16/34/16 14/35/16 18/26/16
f 17/32/17 24/27/17 21/29/17 13/36/17
f 19/31/18 23/25/18 24/27/18 17/32/18
f 15/37/19 22/23/19 23/25/19 19/31/19
f 13/38/20 21/20/20 22/23/20 15/37/20
o Cube.002_Cube.003
v -3.316455 -0.648479 1.816455
v -3.430886 1.016997 1.930886
v -3.316455 -0.648479 1.183545
v -3.430886 1.016997 1.069114
v -2.683545 -0.648479 1.816455
v -2.569114 1.016997 1.930886
v -2.683545 -0.648479 1.183545
v -2.569114 1.016997 1.069114
v -3.221094 0.674185 1.721094
v -3.221094 0.674185 1.278906
v -2.778906 0.674185 1.278906
v -2.778906 0.674185 1.721094
vt 0.601958 0.000000
vt 0.625000 0.000000
vt 0.625000 0.250000
vt 0.601958 0.250000
vt 0.625000 0.500000
vt 0.601958 0.500000
vt 0.625000 0.750000
vt 0.601958 0.750000
vt 0.625000 1.000000
vt 0.601958 1.000000
vt 0.125000 0.500000
vt 0.375000 0.500000
vt 0.375000 0.750000
vt 0.125000 0.750000
vt 0.875000 0.500000
vt 0.875000 0.750000
vt 0.375000 1.000000
vt 0.375000 0.250000
vt 0.375000 0.000000
vn -0.8530 -0.5220 0.0000
vn 0.0000 -0.5220 -0.8530
vn 0.8530 -0.5220 0.0000
vn 0.0000 -0.5220 0.8530
vn 0.0000 -1.0000 0.0000
vn 0.0000 1.0000 0.0000
vn 0.0000 0.0719 0.9974
vn 0.9974 0.0719 0.0000
vn 0.0000 0.0719 -0.9974
vn -0.9974 0.0719 0.0000
usemtl Material.001
s off
f 33/39/21 26/40/21 28/41/21 34/42/21
f 34/42/22 28/41/22 32/43/22 35/44/22
f 35/44/23 32/43/23 30/45/23 36/46/23
f 36/46/24 30/45/24 26/47/24 33/48/24
f 27/49/25 31/50/25 29/51/25 25/52/25
f 32/43/26 28/53/26 26/54/26 30/45/26
f 29/51/27 36/46/27 33/48/27 25/55/27
f 31/50/28 35/44/28 36/46/28 29/51/28
f 27/56/29 34/42/29 35/44/29 31/50/29
f 25/57/30 33/39/30 34/42/30 27/56/30
o Cube.003_Cube.004
v 2.683545 -0.648479 1.854843
v 2.569114 1.016997 1.969273
v 2.683545 -0.648479 1.221932
v 2.569114 1.016997 1.107502
v 3.316455 -0.648479 1.854843
v 3.430886 1.016997 1.969273
v 3.316455 -0.648479 1.221932
v 3.430886 1.016997 1.107502
v 2.778906 0.674185 1.759481
v 2.778906 0.674185 1.317294
v 3.221094 0.674185 1.317294
v 3.221094 0.674185 1.759481
vt 0.601958 0.000000
vt 0.625000 0.000000
vt 0.625000 0.250000
vt 0.601958 0.250000
vt 0.625000 0.500000
vt 0.601958 0.500000
vt 0.625000 0.750000
vt 0.601958 0.750000
vt 0.625000 1.000000
vt 0.601958 1.000000
vt 0.125000 0.500000
vt 0.375000 0.500000
vt 0.375000 0.750000
vt 0.125000 0.750000
vt 0.875000 0.500000
vt 0.875000 0.750000
vt 0.375000 1.000000
vt 0.375000 0.250000
vt 0.375000 0.000000
vn -0.8530 -0.5220 0.0000
vn 0.0000 -0.5220 -0.8530
vn 0.8530 -0.5220 0.0000
vn 0.0000 -0.5220 0.8530
vn 0.0000 -1.0000 0.0000
vn 0.0000 1.0000 0.0000
vn 0.0000 0.0719 0.9974
vn 0.9974 0.0719 0.0000
vn 0.0000 0.0719 -0.9974
vn -0.9974 0.0719 0.0000
usemtl Material.001
s off
f 45/58/31 38/59/31 40/60/31 46/61/31
f 46/61/32 40/60/32 44/62/32 47/63/32
f 47/63/33 44/62/33 42/64/33 48/65/33
f 48/65/34 42/64/34 38/66/34 45/67/34
f 39/68/35 43/69/35 41/70/35 37/71/35
f 44/62/36 40/72/36 38/73/36 42/64/36
f 41/70/37 48/65/37 45/67/37 37/74/37
f 43/69/38 47/63/38 48/65/38 41/70/38
f 39/75/39 46/61/39 47/63/39 43/69/39
f 37/76/40 45/58/40 46/61/40 39/75/40
o Cube.006_Cube.007
v 3.323302 1.017029 2.420447
v 3.323302 1.244024 2.420447
v 2.752257 1.017029 2.420447
v 2.752257 1.244024 2.420447
v 3.323302 1.017029 -2.214310
v 3.323302 1.244024 -2.214310
v 2.752256 1.017029 -2.214310
v 2.752256 1.244024 -2.214310
vt 0.375000 0.000000
vt 0.625000 0.000000
vt 0.625000 0.250000
vt 0.375000 0.250000
vt 0.625000 0.500000
vt 0.375000 0.500000
vt 0.625000 0.750000
vt 0.375000 0.750000
vt 0.625000 1.000000
vt 0.375000 1.000000
vt 0.125000 0.500000
vt 0.125000 0.750000
vt 0.875000 0.500000
vt 0.875000 0.750000
vn 0.0000 0.0000 1.0000
vn -1.0000 0.0000 0.0000
vn 0.0000 0.0000 -1.0000
vn 1.0000 0.0000 -0.0000
vn 0.0000 -1.0000 -0.0000
vn 0.0000 1.0000 -0.0000
usemtl Material.002
s off
f 49/77/41 50/78/41 52/79/41 51/80/41
f 51/80/42 52/79/42 56/81/42 55/82/42
f 55/82/43 56/81/43 54/83/43 53/84/43
f 53/84/44 54/83/44 50/85/44 49/86/44
f 51/87/45 55/82/45 53/84/45 49/88/45
f 56/81/46 52/89/46 50/90/46 54/83/46
o Cube.004_Cube.009
v -2.708629 1.017029 2.420447
v -2.708629 1.244024 2.420447
v -3.279674 1.017029 2.420447
v -3.279674 1.244024 2.420447
v -2.708629 1.017029 -2.214310
v -2.708629 1.244024 -2.214310
v -3.279674 1.017029 -2.214310
v -3.279674 1.244024 -2.214310
vt 0.375000 0.000000
vt 0.625000 0.000000
vt 0.625000 0.250000
vt 0.375000 0.250000
vt 0.625000 0.500000
vt 0.375000 0.500000
vt 0.625000 0.750000
vt 0.375000 0.750000
vt 0.625000 1.000000
vt 0.375000 1.000000
vt 0.125000 0.500000
vt 0.125000 0.750000
vt 0.875000 0.500000
vt 0.875000 0.750000
vn 0.0000 0.0000 1.0000
vn -1.0000 0.0000 0.0000
vn 0.0000 0.0000 -1.0000
vn 1.0000 0.0000 -0.0000
vn 0.0000 -1.0000 -0.0000
vn 0.0000 1.0000 -0.0000
usemtl Material.002
s off
f 57/91/47 58/92/47 60/93/47 59/94/47
f 59/94/48 60/93/48 64/95/48 63/96/48
f 63/96/49 64/95/49 62/97/49 61/98/49
f 61/98/50 62/97/50 58/99/50 57/100/50
f 59/101/51 63/96/51 61/98/51 57/102/51
f 64/95/52 60/103/52 58/104/52 62/97/52
o Cube.005_Cube.010
v -3.821362 1.182272 0.388591
v -3.821362 1.409266 0.388591
v -3.821362 1.182272 -0.182454
v -3.821362 1.409266 -0.182454
v 3.956532 1.182272 0.388591
v 3.956532 1.409266 0.388591
v 3.956532 1.182272 -0.182454
v 3.956532 1.409266 -0.182454
vt 0.375000 0.000000
vt 0.625000 0.000000
vt 0.625000 0.250000
vt 0.375000 0.250000
vt 0.625000 0.500000
vt 0.375000 0.500000
vt 0.625000 0.750000
vt 0.375000 0.750000
vt 0.625000 1.000000
vt 0.375000 1.000000
vt 0.125000 0.500000
vt 0.125000 0.750000
vt 0.875000 0.500000
vt 0.875000 0.750000
vn -1.0000 0.0000 0.0000
vn 0.0000 0.0000 -1.0000
vn 1.0000 0.0000 0.0000
vn 0.0000 0.0000 1.0000
vn 0.0000 -1.0000 0.0000
vn 0.0000 1.0000 0.0000
usemtl Material.002
s off
f 65/105/53 66/106/53 68/107/53 67/108/53
f 67/108/54 68/107/54 72/109/54 71/110/54
f 71/110/55 72/109/55 70/111/55 69/112/55
f 69/112/56 70/111/56 66/113/56 65/114/56
f 67/115/57 71/110/57 69/112/57 65/116/57
f 72/109/58 68/117/58 66/118/58 70/111/58
o Cube.007_Cube.011
v -3.821362 1.182272 1.034979
v -3.821362 1.409266 1.034979
v -3.821362 1.182272 0.463934
v -3.821362 1.409266 0.463934
v 3.956532 1.182272 1.034979
v 3.956532 1.409266 1.034979
v 3.956532 1.182272 0.463934
v 3.956532 1.409266 0.463934
vt 0.375000 0.000000
vt 0.625000 0.000000
vt 0.625000 0.250000
vt 0.375000 0.250000
vt 0.625000 0.500000
vt 0.375000 0.500000
vt 0.625000 0.750000
vt 0.375000 0.750000
vt 0.625000 1.000000
vt 0.375000 1.000000
vt 0.125000 0.500000
vt 0.125000 0.750000
vt 0.875000 0.500000
vt 0.875000 0.750000
vn -1.0000 0.0000 0.0000
vn 0.0000 0.0000 -1.0000
vn 1.0000 0.0000 0.0000
vn 0.0000 0.0000 1.0000
vn 0.0000 -1.0000 0.0000
vn 0.0000 1.0000 0.0000
usemtl Material.002
s off
f 73/119/59 74/120/59 76/121/59 75/122/59
f 75/122/60 76/121/60 80/123/60 79/124/60
f 79/124/61 80/123/61 78/125/61 77/126/61
f 77/126/62 78/125/62 74/127/62 73/128/62
f 75/129/63 79/124/63 77/126/63 73/130/63
f 80/123/64 76/131/64 74/132/64 78/125/64
o Cube.008_Cube.012
v -3.821362 1.182272 1.710502
v -3.821362 1.409266 1.710502
v -3.821362 1.182272 1.139456
v -3.821362 1.409266 1.139456
v 3.956532 1.182272 1.710502
v 3.956532 1.409266 1.710502
v 3.956532 1.182272 1.139456
v 3.956532 1.409266 1.139456
vt 0.375000 0.000000
vt 0.625000 0.000000
vt 0.625000 0.250000
vt 0.375000 0.250000
vt 0.625000 0.500000
vt 0.375000 0.500000
vt 0.625000 0.750000
vt 0.375000 0.750000
vt 0.625000 1.000000
vt 0.375000 1.000000
vt 0.125000 0.500000
vt 0.125000 0.750000
vt 0.875000 0.500000
vt 0.875000 0.750000
vn -1.0000 0.0000 0.0000
vn 0.0000 0.0000 -1.0000
vn 1.0000 0.0000 0.0000
vn 0.0000 0.0000 1.0000
vn 0.0000 -1.0000 0.0000
vn 0.0000 1.0000 0.0000
usemtl Material.002
s off
f 81/133/65 82/134/65 84/135/65 83/136/65
f 83/136/66 84/135/66 88/137/66 87/138/66
f 87/138/67 88/137/67 86/139/67 85/140/67
f 85/140/68 86/139/68 82/141/68 81/142/68
f 83/143/69 87/138/69 85/140/69 81/144/69
f 88/137/70 84/145/70 82/146/70 86/139/70
o Cube.009_Cube.013
v -3.821608 1.182190 2.397790
v -3.821608 1.409184 2.397790
v -3.821608 1.182190 1.826745
v -3.821608 1.409184 1.826745
v 3.956286 1.182190 2.397790
v 3.956286 1.409184 2.397790
v 3.956286 1.182190 1.826745
v 3.956286 1.409184 1.826745
vt 0.375000 0.000000
vt 0.625000 0.000000
vt 0.625000 0.250000
vt 0.375000 0.250000
vt 0.625000 0.500000
vt 0.375000 0.500000
vt 0.625000 0.750000
vt 0.375000 0.750000
vt 0.625000 1.000000
vt 0.375000 1.000000
vt 0.125000 0.500000
vt 0.125000 0.750000
vt 0.875000 0.500000
vt 0.875000 0.750000
vn -1.0000 0.0000 0.0000
vn 0.0000 0.0000 -1.0000
vn 1.0000 0.0000 0.0000
vn 0.0000 0.0000 1.0000
vn 0.0000 -1.0000 0.0000
vn 0.0000 1.0000 0.0000
usemtl Material.002
s off
f 89/147/71 90/148/71 92/149/71 91/150/71
f 91/150/72 92/149/72 96/151/72 95/152/72
f 95/152/73 96/151/73 94/153/73 93/154/73
f 93/154/74 94/153/74 90/155/74 89/156/74
f 91/157/75 95/152/75 93/154/75 89/158/75
f 96/151/76 92/159/76 90/160/76 94/153/76
o Cube.010_Cube.014
v -3.821362 1.182272 -1.549983
v -3.821362 1.409266 -1.549983
v -3.821362 1.182272 -2.121028
v -3.821362 1.409266 -2.121028
v 3.956532 1.182272 -1.549983
v 3.956532 1.409266 -1.549983
v 3.956532 1.182272 -2.121028
v 3.956532 1.409266 -2.121028
vt 0.375000 0.000000
vt 0.625000 0.000000
vt 0.625000 0.250000
vt 0.375000 0.250000
vt 0.625000 0.500000
vt 0.375000 0.500000
vt 0.625000 0.750000
vt 0.375000 0.750000
vt 0.625000 1.000000
vt 0.375000 1.000000
vt 0.125000 0.500000
vt 0.125000 0.750000
vt 0.875000 0.500000
vt 0.875000 0.750000
vn -1.0000 0.0000 0.0000
vn 0.0000 0.0000 -1.0000
vn 1.0000 0.0000 0.0000
vn 0.0000 0.0000 1.0000
vn 0.0000 -1.0000 0.0000
vn 0.0000 1.0000 0.0000
usemtl Material.002
s off
f 97/161/77 98/162/77 100/163/77 99/164/77
f 99/164/78 100/163/78 104/165/78 103/166/78
f 103/166/79 104/165/79 102/167/79 101/168/79
f 101/168/80 102/167/80 98/169/80 97/170/80
f 99/171/81 103/166/81 101/168/81 97/172/81
f 104/165/82 100/173/82 98/174/82 102/167/82
o Cube.011_Cube.015
v -3.821362 1.182272 -0.903595
v -3.821362 1.409266 -0.903595
v -3.821362 1.182272 -1.474640
v -3.821362 1.409266 -1.474640
v 3.956532 1.182272 -0.903595
v 3.956532 1.409266 -0.903595
v 3.956532 1.182272 -1.474640
v 3.956532 1.409266 -1.474640
vt 0.375000 0.000000
vt 0.625000 0.000000
vt 0.625000 0.250000
vt 0.375000 0.250000
vt 0.625000 0.500000
vt 0.375000 0.500000
vt 0.625000 0.750000
vt 0.375000 0.750000
vt 0.625000 1.000000
vt 0.375000 1.000000
vt 0.125000 0.500000
vt 0.125000 0.750000
vt 0.875000 0.500000
vt 0.875000 0.750000
vn -1.0000 0.0000 0.0000
vn 0.0000 0.0000 -1.0000
vn 1.0000 0.0000 0.0000
vn 0.0000 0.0000 1.0000
vn 0.0000 -1.0000 0.0000
vn 0.0000 1.0000 0.0000
usemtl Material.002
s off
f 105/175/83 106/176/83 108/177/83 107/178/83
f 107/178/84 108/177/84 112/179/84 111/180/84
f 111/180/85 112/179/85 110/181/85 109/182/85
f 109/182/86 110/181/86 106/183/86 105/184/86
f 107/185/87 111/180/87 109/182/87 105/186/87
f 112/179/88 108/187/88 106/188/88 110/181/88
o Cube.012_Cube.016
v -3.821362 1.182272 -0.228072
v -3.821362 1.409266 -0.228072
v -3.821362 1.182272 -0.799117
v -3.821362 1.409266 -0.799117
v 3.956532 1.182272 -0.228072
v 3.956532 1.409266 -0.228072
v 3.956532 1.182272 -0.799117
v 3.956532 1.409266 -0.799117
vt 0.375000 0.000000
vt 0.625000 0.000000
vt 0.625000 0.250000
vt 0.375000 0.250000
vt 0.625000 0.500000
vt 0.375000 0.500000
vt 0.625000 0.750000
vt 0.375000 0.750000
vt 0.625000 1.000000
vt 0.375000 1.000000
vt 0.125000 0.500000
vt 0.125000 0.750000
vt 0.875000 0.500000
vt 0.875000 0.750000
vn -1.0000 0.0000 0.0000
vn 0.0000 0.0000 -1.0000
vn 1.0000 0.0000 0.0000
vn 0.0000 0.0000 1.0000
vn 0.0000 -1.0000 0.0000
vn 0.0000 1.0000 0.0000
usemtl Material.002
s off
f 113/189/89 114/190/89 116/191/89 115/192/89
f 115/192/90 116/191/90 120/193/90 119/194/90
f 119/194/91 120/193/91 118/195/91 117/196/91
f 117/196/92 118/195/92 114/197/92 113/198/92
f 115/199/93 119/194/93 117/196/93 113/200/93
f 120/193/94 116/201/94 114/202/94 118/195/94
